<?xml version="1.0" encoding="UTF-8"?>
<svg width="18px" height="9px" viewBox="0 0 18 9" version="1.1" xmlns="http://www.w3.org/2000/svg" xmlns:xlink="http://www.w3.org/1999/xlink">
    <!-- Generator: Sketch 49.3 (51167) - http://www.bohemiancoding.com/sketch -->
    <title>menu-34</title>
    <desc>Created with Sketch.</desc>
    <defs></defs>
    <g id="Page-1" stroke="none" stroke-width="1" fill="none" fill-rule="evenodd">
        <g id="Artboard" transform="translate(-521.000000, -712.000000)" fill="#111111" fill-rule="nonzero">
            <g id="menu-34" transform="translate(521.000000, 712.000000)">
                <path d="M17.25,1.5 L0.75,1.5 C0.3,1.5 0,1.2 0,0.75 C0,0.3 0.3,0 0.75,0 L17.25,0 C17.7,0 18,0.3 18,0.75 C18,1.2 17.7,1.5 17.25,1.5 Z" id="Shape"></path>
                <path d="M17.25,9 L0.75,9 C0.3,9 0,8.7 0,8.25 C0,7.8 0.3,7.5 0.75,7.5 L17.25,7.5 C17.7,7.5 18,7.8 18,8.25 C18,8.7 17.7,9 17.25,9 Z" id="Shape"></path>
            </g>
        </g>
    </g>
</svg>